<svg width="109" height="38" viewBox="0 0 109 38" fill="none" xmlns="http://www.w3.org/2000/svg">
<g clip-path="url(#clip0_1191_51)">
<path d="M18.7248 37.999C29.0662 37.999 37.4496 29.4927 37.4496 18.9995C37.4496 8.50638 29.0662 0 18.7248 0C8.38338 0 0 8.50638 0 18.9995C0 29.4927 8.38338 37.999 18.7248 37.999Z" fill="#B660A6"/>
<path d="M19.7616 31.508C19.0543 31.7914 18.3906 31.7789 17.6767 31.4974C14.2919 30.163 10.8958 28.8594 7.50436 27.5442C7.3737 27.4933 7.23926 27.4472 7.11712 27.379C6.84823 27.231 6.66645 27.013 6.63994 26.6902C6.62573 26.5144 6.61437 26.3376 6.61437 26.1618C6.62005 21.6542 6.70905 22.3536 6.71947 17.8461C6.71947 17.6482 6.67402 17.5098 6.50549 17.3782C5.86356 16.8748 5.94404 16.1111 6.69485 15.7518C7.42578 15.4021 8.18132 15.1024 8.93024 14.7911C9.64791 14.4923 10.3703 14.2022 11.0937 13.9188C11.2366 13.8631 11.283 13.7843 11.3114 13.6335C11.7006 11.5478 12.2516 9.51595 13.3584 7.68584C13.7892 6.97205 14.3033 6.32647 14.9945 5.84709C15.6686 5.38019 16.4109 5.18805 17.2261 5.24377C17.3492 5.25242 17.4997 5.15539 17.6067 5.06893C18.0829 4.67889 18.5999 4.37627 19.1983 4.22833C20.7046 3.85558 22.0121 4.2802 23.153 5.28508C23.9124 5.95372 24.4568 6.80201 24.9254 7.69641C25.9139 9.58608 26.5605 11.593 26.8796 13.7084C26.9109 13.9178 26.98 14.0418 27.2082 14.1311C28.4333 14.6086 29.6462 15.1187 30.8618 15.6192C30.9376 15.6509 31.0114 15.6903 31.0824 15.7326C31.7452 16.1236 31.7717 16.9056 31.1213 17.3196C30.9452 17.432 30.9026 17.5483 30.9035 17.7404C30.913 22.2201 30.8353 21.4928 30.8334 25.9725C30.8334 26.0484 30.8391 26.1243 30.8334 26.2002C30.8202 26.3827 30.752 26.5134 30.6034 26.597C30.5503 26.6268 30.4888 26.6604 30.4197 26.6978C28.6994 27.6134 22.0926 30.5733 19.7616 31.5071V31.508ZM15.4376 12.2453C15.519 12.2164 15.5777 12.1972 15.6355 12.1742C16.6495 11.7716 17.6616 11.3634 18.6794 10.9704C18.7949 10.9262 18.954 10.9243 19.0695 10.9676C20.1602 11.3758 21.2452 11.8005 22.334 12.2126C22.4723 12.2645 22.5168 12.2798 22.8387 12.373C22.3691 10.9877 21.7698 9.67927 20.8959 8.58312C20.2681 7.79536 19.5192 7.14786 18.6046 6.73572C17.94 6.43599 18.0744 6.43983 17.6124 6.94227C17.5281 7.03353 17.4505 7.13345 17.3776 7.23432C16.8795 7.92217 16.5273 8.68784 16.2054 9.4708C15.8428 10.3556 15.5966 11.2721 15.4376 12.2433V12.2453ZM25.6952 13.5163C25.681 13.3875 25.6791 13.3039 25.663 13.2223C25.3676 11.7111 24.897 10.2586 24.2456 8.86557C23.7514 7.80881 23.1578 6.82507 22.2744 6.05267C21.6344 5.49259 20.9015 5.12465 20.0371 5.20342C19.594 5.24377 19.1623 5.40325 18.7249 5.50796C18.7277 5.53294 18.7296 5.55792 18.7324 5.58386C18.7665 5.60307 18.7978 5.62901 18.8347 5.64054C20.1725 6.08149 21.1761 6.96629 21.9818 8.10374C22.9959 9.5342 23.6671 11.1366 24.2418 12.7881C24.2769 12.8889 24.3725 13.0013 24.4672 13.0417C24.861 13.2098 25.2663 13.3529 25.6952 13.5163ZM16.6353 6.35529C16.6012 6.36201 16.5624 6.36778 16.5245 6.37835C15.6033 6.65694 14.9661 7.30445 14.4311 8.07012C13.8072 8.96259 13.4086 9.96555 13.1009 11.006C12.8983 11.6929 12.7278 12.3894 12.5243 13.1522C13.1198 12.9302 13.6368 12.7429 14.1461 12.5392C14.2105 12.5133 14.2654 12.4038 14.2806 12.324C14.6735 10.1779 15.324 8.1364 16.6353 6.35529ZM26.8067 14.4616C26.7878 14.4865 26.7698 14.5125 26.7509 14.5375C26.8238 14.5884 26.891 14.6547 26.9705 14.6883C28.1777 15.1869 29.3858 15.6816 30.5939 16.1754C30.7577 16.2427 30.9641 16.3167 30.931 16.5184C30.9054 16.6779 30.7833 16.8527 30.6535 16.9574C30.4898 17.09 30.2805 17.1688 30.0826 17.2514C27.9467 18.1458 25.8088 19.0354 23.6728 19.9298C22.2687 20.5177 20.8656 21.1076 19.4643 21.7013C19.0363 21.8829 18.6131 21.8733 18.1871 21.7013C17.5745 21.4544 16.96 21.2085 16.3484 20.9577C13.6188 19.8395 10.8901 18.7213 8.16239 17.5973C7.74295 17.4243 7.32447 17.2408 6.92682 17.0228C6.58976 16.8374 6.61248 16.4886 6.9467 16.2926C7.04611 16.234 7.15215 16.186 7.25914 16.1418C8.51933 15.6221 9.78046 15.1043 11.0397 14.5807C11.1022 14.5548 11.1438 14.4769 11.1959 14.4222C9.9168 14.8852 8.68691 15.3906 7.45986 15.9007C7.23926 15.9919 7.01487 16.0832 6.81131 16.2071C6.46951 16.4146 6.43069 16.8066 6.73272 17.0708C6.89178 17.2101 7.08966 17.3158 7.28565 17.3974C9.16504 18.1766 11.0473 18.947 12.9286 19.7213C14.5798 20.4015 16.2338 21.074 17.8794 21.7676C18.5118 22.0337 19.1083 22.0414 19.7455 21.7676C21.6893 20.9299 23.6454 20.121 25.5967 19.3015C27.1826 18.6358 28.7694 17.9738 30.3525 17.3014C30.5475 17.2187 30.7454 17.1092 30.8969 16.9642C31.232 16.6433 31.1639 16.2811 30.7473 16.0842C30.4557 15.9468 30.1555 15.8296 29.8573 15.7076C28.8404 15.2916 27.8236 14.8775 26.8067 14.4625V14.4616ZM16.676 15.4319C16.6277 15.4069 16.6097 15.3925 16.5889 15.3877C15.9687 15.2186 15.3495 15.0486 14.7275 14.8862C14.6442 14.8641 14.5447 14.8583 14.4624 14.8824C13.7352 15.0956 13.0109 15.3175 12.2866 15.5375C12.1342 15.5837 12.067 15.6816 12.0689 15.8546C12.0793 16.7365 12.0774 17.6184 12.085 18.5003C12.085 18.5627 12.1209 18.6607 12.1673 18.6819C12.4126 18.7952 12.6663 18.8894 12.9418 19.0008C12.9418 18.1929 12.9541 17.4205 12.9352 16.6481C12.9286 16.382 13.0242 16.2859 13.2666 16.2312C14.3914 15.9766 15.5124 15.7066 16.6741 15.4319H16.676ZM17.9958 16.2734C17.7373 16.3311 17.4808 16.3791 17.227 16.4454C16.48 16.6404 15.733 16.8393 14.9897 17.0487C14.9121 17.0708 14.8032 17.1784 14.8013 17.2485C14.789 18.0459 14.7928 18.8433 14.7994 19.6416C14.7994 19.7021 14.8439 19.7972 14.8913 19.8164C15.2596 19.9682 15.6336 20.1056 16.0274 20.2564C16.0274 20.1335 16.0274 20.0489 16.0274 19.9654C16.0284 19.2938 16.035 18.6223 16.0284 17.9508C16.0255 17.676 16.0852 17.4906 16.3825 17.3859C16.8398 17.2245 17.2706 16.9843 17.726 16.8162C17.9901 16.7192 18.0716 16.5732 17.9939 16.2744L17.9958 16.2734ZM13.5828 13.2598C13.5828 13.278 13.5809 13.2953 13.5809 13.3135C15.0532 13.8025 16.5264 14.2925 18.0479 14.7978C18.0479 14.5086 18.0564 14.2579 18.0422 14.0081C18.0384 13.9447 17.9712 13.8554 17.9125 13.8304C17.068 13.4778 16.2196 13.1329 15.3704 12.7919C15.2671 12.7506 15.1355 12.7006 15.0409 12.7314C14.5504 12.8937 14.0685 13.0811 13.5837 13.2598H13.5828ZM23.2742 13.5604C23.1947 13.2953 23.1104 13.0177 23.029 12.7391C22.9883 12.5998 22.9106 12.5863 22.7857 12.6363C21.7518 13.0494 20.715 13.4557 19.6821 13.8707C19.6262 13.8928 19.5552 13.9649 19.5524 14.0168C19.5391 14.2742 19.5467 14.5327 19.5467 14.7969C20.8012 14.3809 22.033 13.9716 23.2742 13.5604ZM10.8608 18.1266C10.9053 17.2351 10.9479 16.3608 10.9933 15.4578C10.8645 15.4088 10.7007 15.3454 10.518 15.2753C10.518 16.1101 10.5313 16.9084 10.5104 17.7058C10.5029 17.9835 10.608 18.0949 10.8608 18.1266Z" fill="#1E1E1E"/>
<path d="M26.8067 14.4603C27.8236 14.8753 28.8414 15.2893 29.8573 15.7053C30.1555 15.8273 30.4557 15.9445 30.7473 16.0819C31.1639 16.2779 31.232 16.641 30.8969 16.9619C30.7454 17.107 30.5465 17.2165 30.3525 17.2991C28.7694 17.9716 27.1816 18.6335 25.5967 19.2993C23.6453 20.1187 21.6893 20.9286 19.7455 21.7653C19.1083 22.0401 18.5109 22.0324 17.8793 21.7653C16.2338 21.0717 14.5798 20.3983 12.9285 19.7191C11.0473 18.9448 9.16503 18.1753 7.28564 17.3952C7.08965 17.3135 6.89177 17.2078 6.73271 17.0685C6.43068 16.8043 6.4695 16.4124 6.81129 16.2049C7.01485 16.0809 7.23925 15.9906 7.45985 15.8984C8.68784 15.3883 9.91679 14.883 11.1959 14.4199C11.1448 14.4737 11.1031 14.5515 11.0397 14.5784C9.78045 15.102 8.51931 15.6189 7.25913 16.1396C7.15214 16.1837 7.0461 16.2318 6.94669 16.2904C6.61247 16.4864 6.59069 16.8351 6.9268 17.0205C7.32446 17.2395 7.74294 17.4221 8.16237 17.595C10.8891 18.719 13.6188 19.8372 16.3484 20.9555C16.96 21.2062 17.5735 21.4512 18.1871 21.6991C18.6131 21.871 19.0363 21.8797 19.4643 21.6991C20.8665 21.1053 22.2687 20.5155 23.6728 19.9275C25.8088 19.0331 27.9466 18.1445 30.0826 17.2491C30.2805 17.1665 30.4897 17.0878 30.6535 16.9552C30.7832 16.8505 30.9054 16.6766 30.9309 16.5161C30.9631 16.3144 30.7577 16.2404 30.5939 16.1732C29.3858 15.6784 28.1767 15.1837 26.9705 14.686C26.89 14.6534 26.8237 14.5861 26.7508 14.5352C26.7698 14.5102 26.7878 14.4843 26.8067 14.4593V14.4603Z" fill="white"/>
<path d="M16.6758 15.4313C15.5141 15.7051 14.3931 15.976 13.2683 16.2306C13.0259 16.2853 12.9303 16.3824 12.9369 16.6475C12.9559 17.4189 12.9435 18.1923 12.9435 19.0002C12.6671 18.8888 12.4133 18.7946 12.1691 18.6813C12.1227 18.6602 12.0867 18.5622 12.0867 18.4997C12.0782 17.6178 12.081 16.7359 12.0706 15.854C12.0687 15.6801 12.1359 15.5831 12.2884 15.537C13.0127 15.316 13.7379 15.095 14.4641 14.8818C14.5455 14.8578 14.6449 14.8635 14.7292 14.8856C15.3503 15.048 15.9705 15.219 16.5906 15.3871C16.6114 15.3929 16.6294 15.4063 16.6777 15.4313H16.6758Z" fill="#7FC67C"/>
<path d="M21.1364 15.4313C22.2981 15.7051 23.4191 15.976 24.5439 16.2306C24.7863 16.2853 24.8819 16.3824 24.8753 16.6475C24.8564 17.4189 24.8687 18.1923 24.8687 19.0002C25.1452 18.8888 25.3989 18.7946 25.6432 18.6813C25.6896 18.6602 25.7255 18.5622 25.7255 18.4997C25.7341 17.6178 25.7312 16.7359 25.7416 15.854C25.7435 15.6801 25.6763 15.5831 25.5239 15.537C24.7996 15.316 24.0743 15.095 23.3481 14.8818C23.2667 14.8578 23.1673 14.8635 23.083 14.8856C22.4619 15.048 21.8418 15.219 21.2216 15.3871C21.2008 15.3929 21.1828 15.4063 21.1345 15.4313H21.1364Z" fill="#7FC67C"/>
<path d="M17.9958 16.2734C18.0735 16.5732 17.992 16.7182 17.7279 16.8152C17.2715 16.9824 16.8417 17.2235 16.3844 17.3849C16.0871 17.4897 16.0274 17.676 16.0303 17.9498C16.0369 18.6213 16.0303 19.2929 16.0293 19.9644C16.0293 20.048 16.0293 20.1315 16.0293 20.2555C15.6355 20.1056 15.2615 19.9682 14.8932 19.8155C14.8458 19.7963 14.8023 19.7012 14.8013 19.6406C14.7947 18.8433 14.7909 18.0449 14.8032 17.2476C14.8042 17.1784 14.914 17.0698 14.9916 17.0477C15.7349 16.8373 16.4819 16.6394 17.2289 16.4444C17.4817 16.3781 17.7392 16.3301 17.9977 16.2725L17.9958 16.2734Z" fill="#7FC67C"/>
<path d="M19.5496 16.2734C19.4719 16.5732 19.5534 16.7182 19.8175 16.8152C20.2739 16.9824 20.7037 17.2235 21.161 17.3849C21.4583 17.4897 21.518 17.676 21.5151 17.9498C21.5085 18.6213 21.5151 19.2929 21.5161 19.9644C21.5161 20.048 21.5161 20.1315 21.5161 20.2555C21.9099 20.1056 22.2839 19.9682 22.6522 19.8155C22.6996 19.7963 22.7431 19.7012 22.7441 19.6406C22.7507 18.8433 22.7545 18.0449 22.7422 17.2476C22.7412 17.1784 22.6314 17.0698 22.5538 17.0477C21.8105 16.8373 21.0635 16.6394 20.3165 16.4444C20.0637 16.3781 19.8062 16.3301 19.5477 16.2725L19.5496 16.2734Z" fill="#7FC67C"/>
<path d="M13.5827 13.2596C14.0674 13.0809 14.5503 12.8936 15.0398 12.7312C15.1335 12.7005 15.2661 12.7504 15.3693 12.7917C16.2186 13.1328 17.0659 13.4777 17.9114 13.8302C17.9711 13.8552 18.0374 13.9446 18.0411 14.008C18.0563 14.2568 18.0468 14.5075 18.0468 14.7976C16.5253 14.2923 15.0531 13.8024 13.5798 13.3134C13.5798 13.2951 13.5817 13.2778 13.5817 13.2596H13.5827Z" fill="#7FC67C"/>
<path d="M23.2741 13.5601C22.0329 13.9722 20.8011 14.3805 19.5466 14.7965C19.5466 14.5323 19.539 14.2739 19.5523 14.0164C19.5551 13.9645 19.6261 13.8925 19.682 13.8704C20.7149 13.4563 21.7517 13.049 22.7856 12.6359C22.9106 12.5859 22.9882 12.5994 23.0289 12.7387C23.1103 13.0173 23.1946 13.294 23.2741 13.5601Z" fill="#7FC67C"/>
<path d="M10.8607 18.1267C10.6079 18.095 10.5028 17.9826 10.5104 17.7059C10.5312 16.9086 10.518 16.1112 10.518 15.2754C10.7007 15.3455 10.8645 15.4089 10.9933 15.4579C10.9488 16.36 10.9052 17.2352 10.8607 18.1267Z" fill="#7FC67C"/>
<path d="M27.2336 18.1267C27.4864 18.095 27.5915 17.9826 27.5839 17.7059C27.5631 16.9086 27.5764 16.1112 27.5764 15.2754C27.3936 15.3455 27.2298 15.4089 27.1011 15.4579C27.1456 16.36 27.1891 17.2352 27.2336 18.1267Z" fill="#7FC67C"/>
<path d="M23.5801 14.72C23.5801 14.72 24.0828 16.5559 23.7448 19.1315H24.9236C24.9236 19.1315 25.2341 14.7402 24.0961 12.6104" fill="#1E1E1E"/>
<path d="M26.7868 13.1512C26.7868 13.1512 27.2365 14.6364 26.9023 17.9047H26.0871C26.0871 17.9047 26.2121 12.8457 25.7424 12.8457C25.2728 12.8457 26.7868 13.1512 26.7868 13.1512Z" fill="#1E1E1E"/>
<path d="M47.8171 19.5784C47.5274 19.5784 47.2916 19.3392 47.2916 19.0452V10.1003H45.3507C45.0609 10.1003 44.8252 9.86104 44.8252 9.56707V7.0299C44.8252 6.73593 45.0609 6.49671 45.3507 6.49671H53.0604C53.3502 6.49671 53.5859 6.73593 53.5859 7.0299V9.56707C53.5859 9.86104 53.3502 10.1003 53.0604 10.1003H51.1356V19.0452C51.1356 19.3392 50.8998 19.5784 50.6101 19.5784H47.8171ZM53.2072 7.0299V9.56707C53.2072 9.64969 53.1419 9.71598 53.0604 9.71598H50.9027C50.8222 9.71598 50.7559 9.78227 50.7559 9.86489V19.0452C50.7559 19.1278 50.6906 19.1941 50.6092 19.1941H47.8161C47.7356 19.1941 47.6694 19.1278 47.6694 19.0452V9.86489C47.6694 9.78323 47.604 9.71598 47.5226 9.71598H45.3497C45.2683 9.71598 45.203 9.64969 45.203 9.56707V7.0299C45.203 6.94728 45.2683 6.88099 45.3497 6.88099H53.0595C53.1409 6.88099 53.2062 6.94728 53.2062 7.0299H53.2072ZM60.9359 19.8849C57.2926 19.8849 54.3291 16.8107 54.3291 13.0323C54.3291 9.25389 57.2926 6.17969 60.9359 6.17969C64.5792 6.17969 67.5417 9.25389 67.5417 13.0323C67.5417 16.8107 64.5782 19.8849 60.9359 19.8849ZM60.9359 9.88314C59.2657 9.88314 57.908 11.2963 57.908 13.0323C57.908 14.7682 59.2667 16.1814 60.9359 16.1814C62.6051 16.1814 63.9637 14.7682 63.9637 13.0323C63.9637 11.2963 62.6051 9.88314 60.9359 9.88314ZM67.163 13.0323C67.163 16.5993 64.369 19.5006 60.9359 19.5006C57.5028 19.5006 54.7079 16.5993 54.7079 13.0323C54.7079 9.46524 57.5019 6.56396 60.9359 6.56396C64.3699 6.56396 67.163 9.46524 67.163 13.0323ZM64.3425 13.0323C64.3425 11.084 62.8143 9.49886 60.9359 9.49886C59.0574 9.49886 57.5293 11.084 57.5293 13.0323C57.5293 14.9805 59.0574 16.5657 60.9359 16.5657C62.8143 16.5657 64.3425 14.9805 64.3425 13.0323ZM75.5677 19.5813C75.366 19.5813 75.1852 19.467 75.0962 19.2825L73.4317 15.8327L71.7682 19.2825C71.6782 19.467 71.4974 19.5813 71.2967 19.5813H68.1855C68.0028 19.5813 67.8371 19.4881 67.7405 19.3305C67.6439 19.173 67.6335 18.9809 67.714 18.8147L70.4881 13.04L67.715 7.26526C67.6354 7.09907 67.6449 6.90597 67.7415 6.74938C67.838 6.59278 68.0047 6.49864 68.1874 6.49864H71.2986C71.4993 6.49864 71.6801 6.612 71.7701 6.79549L73.4346 10.2463L75.099 6.79645C75.189 6.612 75.3689 6.49767 75.5705 6.49767H78.6817C78.8644 6.49767 79.0301 6.59086 79.1276 6.74841C79.2252 6.90597 79.2337 7.09811 79.1542 7.2643L76.381 13.039L79.1542 18.8137C79.2337 18.9799 79.2242 19.173 79.1276 19.3296C79.0311 19.4862 78.8644 19.5803 78.6827 19.5803H75.5715L75.5677 19.5813ZM78.8105 18.9828C78.8578 19.0817 78.7868 19.197 78.6789 19.197H75.5677C75.5118 19.197 75.4607 19.1643 75.4361 19.1134L73.5633 15.2322C73.5094 15.1208 73.3541 15.1208 73.3001 15.2322L71.4273 19.1134C71.4027 19.1643 71.3516 19.197 71.2957 19.197H68.1846C68.0757 19.197 68.0056 19.0817 68.053 18.9828L70.8763 13.1053C70.8962 13.064 70.8962 13.0159 70.8763 12.9746L68.053 7.09714C68.0056 6.99819 68.0766 6.88387 68.1846 6.88387H71.2957C71.3516 6.88387 71.4027 6.91653 71.4273 6.96649L73.3001 10.8486C73.3541 10.9601 73.5103 10.9601 73.5633 10.8486L75.4361 6.96649C75.4607 6.91557 75.5118 6.88387 75.5677 6.88387H78.6789C78.7868 6.88387 78.8578 6.99915 78.8105 7.09714L75.9871 12.9746C75.9672 13.0159 75.9672 13.064 75.9871 13.1053L78.8105 18.9828ZM81.0525 19.5813C80.7599 19.5813 80.5213 19.3401 80.5213 19.0433V7.05199C80.5213 6.75514 80.7599 6.51401 81.0525 6.51401H83.8342C84.1267 6.51401 84.3653 6.75514 84.3653 7.05199V19.0433C84.3653 19.3401 84.1267 19.5813 83.8342 19.5813H81.0525ZM83.9866 7.05103V19.0423C83.9866 19.1269 83.9184 19.196 83.8342 19.196H81.0525C80.9682 19.196 80.9001 19.1269 80.9001 19.0423V7.05103C80.9001 6.96553 80.9682 6.89732 81.0525 6.89732H83.8342C83.9175 6.89732 83.9866 6.96649 83.9866 7.05103ZM92.4245 19.9175C88.7812 19.9175 85.8177 16.8433 85.8177 13.0649C85.8177 9.28655 88.7812 6.21235 92.4245 6.21235C93.4972 6.21235 94.5216 6.47078 95.4675 6.9809C96.2741 7.41609 97.0022 8.0367 97.575 8.7745C97.6631 8.88787 97.7019 9.03389 97.682 9.17703C97.6621 9.32018 97.5855 9.45083 97.4709 9.53633L95.4097 11.0667C95.3188 11.1349 95.2099 11.1705 95.0963 11.1705C94.942 11.1705 94.7952 11.1023 94.6949 10.9831C94.1145 10.2943 93.3078 9.91484 92.4245 9.91484C90.7543 9.91484 89.3966 11.3271 89.3966 13.064C89.3966 14.8009 90.7553 16.2131 92.4245 16.2131C93.3287 16.2131 94.1789 15.7962 94.7564 15.0699C94.8558 14.945 95.0045 14.873 95.1635 14.873C95.2762 14.873 95.3842 14.9085 95.475 14.9767L97.5324 16.5052C97.647 16.5907 97.7246 16.7213 97.7445 16.8635C97.7653 17.0066 97.7284 17.1498 97.6432 17.2641C96.3991 18.9261 94.4478 19.9175 92.4235 19.9175H92.4245ZM97.3421 17.0316C96.1653 18.6033 94.3484 19.5332 92.4245 19.5332C88.9904 19.5332 86.1964 16.631 86.1964 13.0649C86.1964 9.49886 88.9904 6.59663 92.4245 6.59663C93.4347 6.59663 94.3995 6.84064 95.2895 7.32098C96.0535 7.73312 96.7352 8.31434 97.2768 9.01276C97.3279 9.07904 97.3137 9.17607 97.2465 9.22603L95.1853 10.7564C95.1219 10.8035 95.0329 10.7939 94.9827 10.7343C94.3351 9.96672 93.4177 9.53153 92.4245 9.53153C90.546 9.53153 89.0179 11.1167 89.0179 13.0649C89.0179 15.0132 90.546 16.5983 92.4245 16.5983C93.4442 16.5983 94.4071 16.1218 95.0518 15.312C95.1011 15.2505 95.1901 15.2409 95.2525 15.287L97.3109 16.8155C97.3791 16.8664 97.3942 16.9644 97.3431 17.0326L97.3421 17.0316ZM53.4837 27.0698C54.1956 26.4156 54.598 25.5673 54.598 24.695C54.598 23.5307 54.1786 22.5921 53.3861 21.9792L53.3842 21.9772C52.6685 21.397 51.4859 21.0646 50.1377 21.0646H45.9235C45.6328 21.0646 45.3952 21.3048 45.3952 21.6006V33.5929C45.3952 33.8907 45.6347 34.1328 45.9282 34.1328H49.6766C51.6573 34.1328 52.5842 34.0281 53.7904 32.9781C54.5507 32.3286 55.0231 31.1845 55.0231 29.9903C55.0231 28.6809 54.4929 27.678 53.4837 27.0698ZM48.6768 30.8021V28.9105C48.6768 28.8279 48.744 28.7597 48.8264 28.7597H50.1595C50.3962 28.7597 50.7919 28.7597 51.1081 28.8875C51.5153 29.0421 51.7217 29.3515 51.7217 29.8049C51.7217 30.291 51.4973 30.6407 51.0712 30.8156C50.7446 30.9558 50.3498 30.9558 50.1595 30.9558H48.8282C48.7449 30.9558 48.6768 30.8867 48.6768 30.8021ZM51.3562 25.2599C51.3562 25.7306 51.1299 26.0669 50.7029 26.235C50.3772 26.3685 49.9833 26.3685 49.794 26.3685H48.8377C48.7553 26.3685 48.6891 26.3013 48.6891 26.2177V24.4068C48.6891 24.3223 48.7563 24.2531 48.8406 24.2531H49.794C50.0297 24.2531 50.4245 24.2531 50.7398 24.3751C51.1479 24.524 51.3562 24.8228 51.3562 25.2599ZM53.0065 27.2476C52.9071 27.1995 52.8929 27.0622 52.9809 26.9949C53.7677 26.3906 54.2193 25.552 54.2193 24.695C54.2193 23.6556 53.851 22.8217 53.1561 22.2847H53.1542L53.1532 22.2818C52.5037 21.7524 51.4045 21.4489 50.1377 21.4489H45.9235C45.8411 21.4489 45.7739 21.5171 45.7739 21.6006V33.5929C45.7739 33.6784 45.843 33.7485 45.9282 33.7485H49.6766C51.5976 33.7485 52.4289 33.6573 53.5461 32.6841C54.224 32.1058 54.6444 31.074 54.6444 29.9903C54.6444 28.6915 54.0934 27.7683 53.0065 27.2476ZM48.6891 24.4068C48.6891 24.3223 48.7563 24.2531 48.8406 24.2531H49.794C50.0297 24.2531 50.4245 24.2531 50.7398 24.3751C51.1479 24.524 51.3562 24.8228 51.3562 25.2599C51.3562 25.7306 51.1299 26.0669 50.7029 26.235C50.3772 26.3685 49.9833 26.3685 49.794 26.3685H48.8377C48.7553 26.3685 48.6891 26.3013 48.6891 26.2177V24.4068ZM51.0712 30.8156C50.7446 30.9558 50.3498 30.9558 50.1595 30.9558H48.8282C48.7449 30.9558 48.6768 30.8867 48.6768 30.8021V28.9105C48.6768 28.8279 48.744 28.7597 48.8264 28.7597H50.1595C50.3962 28.7597 50.7919 28.7597 51.1081 28.8875C51.5153 29.0421 51.7217 29.3515 51.7217 29.8049C51.7217 30.291 51.4973 30.6407 51.0712 30.8156ZM68.213 33.4209L63.7517 21.4095C63.6721 21.1943 63.4667 21.0502 63.2404 21.0502H60.614C60.3782 21.0502 60.1643 21.2 60.0819 21.4239L55.6263 33.4209C55.5647 33.5862 55.5874 33.7706 55.6859 33.9157C55.7844 34.0608 55.9472 34.1472 56.1214 34.1472H59.1408C59.3699 34.1472 59.5716 33.9993 59.6426 33.7793L60.2305 31.9693H63.6078L64.1891 33.7562C64.2658 33.9897 64.4797 34.1472 64.7231 34.1472H67.7187C67.892 34.1472 68.0549 34.0608 68.1533 33.9157C68.2518 33.7706 68.2745 33.5862 68.213 33.4209ZM60.8393 28.8702L61.7738 25.9948C61.8202 25.8526 62.019 25.8526 62.0654 25.9948L62.998 28.8654C63.0312 28.9653 62.9573 29.069 62.8532 29.069H60.9804C60.8791 29.069 60.8071 28.9682 60.8393 28.8702ZM67.8589 33.5564L63.3976 21.5449C63.3729 21.4786 63.3105 21.4344 63.2404 21.4344H60.614C60.5345 21.4344 60.4634 21.4844 60.436 21.5593L55.9804 33.5564C55.9434 33.6563 56.0163 33.763 56.1214 33.763H59.1408C59.2061 33.763 59.2629 33.7207 59.2828 33.6582L59.9219 31.6917C59.9427 31.6283 60.0014 31.5851 60.0667 31.5851H63.7734C63.8388 31.5851 63.8956 31.6283 63.9164 31.6907L64.5479 33.6352C64.5735 33.7111 64.6435 33.763 64.7231 33.763H67.7187C67.8229 33.763 67.8958 33.6563 67.8589 33.5564ZM62.8532 29.069H60.9804C60.8791 29.069 60.8071 28.9682 60.8393 28.8702L61.7738 25.9948C61.8202 25.8526 62.019 25.8526 62.0654 25.9948L62.998 28.8654C63.0312 28.9653 62.9573 29.069 62.8532 29.069ZM73.4781 34.3298C72.0314 34.3298 70.8867 33.9407 70.0772 33.1741C69.6938 32.7975 69.1901 32.1327 68.9363 31.0759C68.9022 30.9357 68.9269 30.7848 69.0026 30.6628C69.0783 30.5418 69.2014 30.4553 69.3397 30.4265L72.1034 29.8453C72.1374 29.8376 72.1744 29.8337 72.2103 29.8337C72.4433 29.8337 72.6516 29.9932 72.715 30.2219C72.8835 30.8165 73.3172 30.8626 73.445 30.8626C73.9383 30.8626 74.1683 30.4207 74.1683 30.1219C74.1683 29.8049 73.8796 29.6541 72.2586 28.9451L72.1185 28.8846C71.3478 28.5608 68.9884 27.5713 68.9884 24.9919C68.9884 23.7257 69.4949 22.643 70.4521 21.861C71.2787 21.1866 72.3978 20.7994 73.5236 20.7994C73.9165 20.7994 74.6938 20.8494 75.4872 21.1866C76.024 21.422 77.2909 22.1281 77.5389 23.6306C77.5844 23.9044 77.413 24.1714 77.1469 24.2377L74.5811 24.8872C74.5385 24.8977 74.4959 24.9035 74.4533 24.9035C74.2431 24.9035 74.0547 24.7786 73.9723 24.5845C73.8919 24.3943 73.7678 24.2675 73.427 24.2675C73.1723 24.2675 72.8144 24.4308 72.8144 24.793C72.8144 24.9083 72.8144 24.9669 73.0634 25.1321C73.3806 25.3425 73.9903 25.6278 74.9987 26.1005C77.1261 27.0929 77.9943 28.2198 77.9943 29.9903C77.9943 30.5735 77.8987 31.6927 77.2615 32.6389C76.5041 33.762 75.2297 34.3307 73.4743 34.3307L73.4781 34.3298ZM77.6194 29.9894C77.6194 30.5283 77.5332 31.5601 76.9529 32.4209C76.2702 33.4325 75.1009 33.9455 73.4781 33.9455C72.1289 33.9455 71.0732 33.592 70.3357 32.8926C70.0157 32.5784 69.5413 31.9703 69.3046 30.9846C69.2847 30.902 69.3349 30.8194 69.4173 30.8021L72.181 30.2209C72.2567 30.2046 72.3306 30.2516 72.3514 30.3266C72.5985 31.197 73.2944 31.2459 73.4459 31.2459C74.1267 31.2459 74.548 30.6619 74.548 30.121C74.548 29.5263 74.0945 29.3284 72.4092 28.5916L72.2681 28.5301C71.4747 28.1977 69.3681 27.3129 69.3681 24.9909C69.3681 22.5171 71.5097 21.1827 73.5255 21.1827C73.907 21.1827 74.6181 21.2327 75.3424 21.5401C75.8546 21.7649 76.951 22.3903 77.1668 23.693C77.1801 23.7699 77.1327 23.8448 77.0579 23.864L74.4912 24.5135C74.423 24.5307 74.3501 24.4971 74.3227 24.4308C74.1977 24.1359 73.9562 23.8813 73.4298 23.8813C72.9422 23.8813 72.4385 24.2214 72.4385 24.7911C72.4385 25.3204 72.7585 25.4713 74.8434 26.4464C76.8411 27.3782 77.6194 28.3706 77.6194 29.9865V29.9894ZM86.2116 34.1232C86.027 34.1232 85.8537 34.0233 85.7581 33.8638L83.3248 29.7761V33.5843C83.3248 33.8811 83.0862 34.1232 82.7936 34.1232H80.011C79.7184 34.1232 79.4808 33.8821 79.4808 33.5852V21.593C79.4808 21.2961 79.7194 21.054 80.012 21.054H82.7927C83.0853 21.054 83.3239 21.2961 83.3239 21.593V25.3464L85.8698 21.3028C85.9683 21.1472 86.1349 21.054 86.3167 21.054H89.1978C89.3938 21.054 89.5727 21.1626 89.6655 21.3384C89.7583 21.5132 89.7479 21.7246 89.639 21.8898L86.0345 27.3955L90.0414 33.2864C90.1522 33.4498 90.1654 33.6602 90.0745 33.836C89.9836 34.0118 89.8056 34.1213 89.6096 34.1222H86.2097L86.2116 34.1232ZM89.6115 33.7389H86.2116C86.1586 33.7389 86.1093 33.7111 86.0828 33.665L83.2282 28.8692C83.1487 28.7357 82.947 28.7933 82.947 28.9489V33.5843C82.947 33.6698 82.8789 33.7389 82.7946 33.7389H80.012C79.9286 33.7389 79.8605 33.6707 79.8605 33.5852V21.593C79.8605 21.5075 79.9286 21.4383 80.0129 21.4383H82.7936C82.8779 21.4383 82.9461 21.5075 82.9461 21.593V26.1332C82.9461 26.2878 83.1449 26.3464 83.2263 26.2158L86.1898 21.5094C86.2173 21.4652 86.2655 21.4383 86.3176 21.4383H89.1987C89.319 21.4383 89.3919 21.5747 89.3247 21.6765L85.6359 27.311C85.6009 27.3648 85.6018 27.4339 85.6378 27.4868L89.7308 33.5045C89.798 33.6035 89.728 33.737 89.6106 33.738L89.6115 33.7389ZM91.9056 34.1319C91.6036 34.1319 91.3584 33.883 91.3584 33.5766V21.6026C91.3584 21.3057 91.597 21.0636 91.8895 21.0636H98.501C98.7746 21.0636 99.0019 21.2721 99.0293 21.5488L98.8958 24.0648C98.911 24.2176 98.8608 24.3703 98.7595 24.4837C98.6582 24.597 98.5133 24.6624 98.3618 24.6624H95.2024V25.7009H97.7152C98.0068 25.7009 98.2444 25.942 98.2444 26.2369V28.7539C98.2444 29.0517 98.0058 29.2938 97.7123 29.2938H95.2024V30.5312L98.3703 30.4937C98.5199 30.4937 98.6629 30.5581 98.7633 30.6705C98.8636 30.7829 98.9129 30.9337 98.8977 31.0846L99.0293 33.6467C99.0019 33.9234 98.7756 34.1319 98.502 34.1319H91.9066H91.9056ZM98.8977 31.0846L98.6525 33.6092C98.6449 33.688 98.5796 33.7476 98.502 33.7476H91.9066C91.8138 33.7476 91.738 33.6707 91.738 33.5766V21.6026C91.738 21.5171 91.8062 21.4479 91.8905 21.4479H98.502C98.5805 21.4479 98.6459 21.5075 98.6534 21.5872L98.8977 24.1032C98.9072 24.1974 98.8343 24.279 98.7405 24.279H94.9761C94.8928 24.279 94.8246 24.3482 94.8246 24.4328V25.9324C94.8246 26.0169 94.8928 26.0861 94.9761 26.0861H97.7161C97.7994 26.0861 97.8667 26.1543 97.8667 26.2379V28.7549C97.8667 28.8404 97.7975 28.9105 97.7133 28.9105H94.9742C94.8918 28.9105 94.8246 28.9787 94.8246 29.0623V30.7618C94.8246 30.8473 94.8928 30.9164 94.977 30.9164H98.7491C98.8381 30.9164 98.9081 30.9952 98.8996 31.0846H98.8977ZM103.231 34.1011C102.941 34.1011 102.706 33.8619 102.706 33.5679V24.623H100.765C100.475 24.623 100.239 24.3838 100.239 24.0898V21.5526C100.239 21.2586 100.475 21.0194 100.765 21.0194H108.475C108.764 21.0194 109 21.2586 109 21.5526V24.0898C109 24.3838 108.764 24.623 108.475 24.623H106.55V33.5679C106.55 33.8619 106.314 34.1011 106.024 34.1011H103.231ZM108.621 21.5526V24.0898C108.621 24.1724 108.556 24.2387 108.475 24.2387H106.317C106.236 24.2387 106.17 24.305 106.17 24.3876V33.5679C106.17 33.6506 106.105 33.7168 106.023 33.7168H103.23C103.15 33.7168 103.084 33.6506 103.084 33.5679V24.3876C103.084 24.3059 103.018 24.2387 102.937 24.2387H100.764C100.682 24.2387 100.617 24.1724 100.617 24.0898V21.5526C100.617 21.47 100.682 21.4037 100.764 21.4037H108.474C108.555 21.4037 108.62 21.47 108.62 21.5526H108.621Z" fill="#1E1E1E"/>
</g>
<defs>
<clipPath id="clip0_1191_51">
<rect width="109" height="38" fill="white"/>
</clipPath>
</defs>
</svg>
